PathFileType	4	(X/Y/Z)	 1.9Hzlow3min.trc
DataRate	CameraRate	NumFrames	NumMarkers	Units	OrigDataRate	OrigDataStartFrame	OrigNumFrames
200	200	9	42	m	200	751	1000
Frame#	Time	C7			LSH			RSH			MAN			RASI			LASI			HIPR			HIPL			RPSI			LPSI			COX			RTHI1			RTHI2			RTHI3			RTHI4			RLKN			RMKN			RSHA1			RSHA2			RSHA3			RSHA4			RLMAL			RHEEL			RMET5			RMET1			RTOE			LTHI1			LTHI2			LTHI3			LTHI4			LLKN			LMKN			LSHA1			LSHA2			LSHA3			LSHA4			LLMAL			LMMAL			LHEEL			LMET5			LMET1			LTOE			
		X1	Y1	Z1	X2	Y2	Z2	X3	Y3	Z3	X4	Y4	Z4	X5	Y5	Z5	X6	Y6	Z6	X7	Y7	Z7	X8	Y8	Z8	X9	Y9	Z9	X10	Y10	Z10	X11	Y11	Z11	X12	Y12	Z12	X13	Y13	Z13	X14	Y14	Z14	X15	Y15	Z15	X16	Y16	Z16	X17	Y17	Z17	X18	Y18	Z18	X19	Y19	Z19	X20	Y20	Z20	X21	Y21	Z21	X22	Y22	Z22	X23	Y23	Z23	X24	Y24	Z24	X25	Y25	Z25	X26	Y26	Z26	X27	Y27	Z27	X28	Y28	Z28	X29	Y29	Z29	X30	Y30	Z30	X31	Y31	Z31	X32	Y32	Z32	X33	Y33	Z33	X34	Y34	Z34	X35	Y35	Z35	X36	Y36	Z36	X37	Y37	Z37	X38	Y38	Z38	X39	Y39	Z39	X40	Y40	Z40	X41	Y41	Z41	X42	Y42	Z42	
751	3.7550	-0.343011	1.315945	-0.529859	-0.283084	1.304965	-0.695476	-0.244260	1.297276	-0.381934	-0.220148	1.254581	-0.550839	-0.224009	0.826820	-0.425408	-0.259651	0.826779	-0.663687	-0.256672	0.910655	-0.401219	-0.296722	0.903082	-0.680896	-0.389647	0.878691	-0.474222	-0.404373	0.877823	-0.561333	-0.403845	0.876354	-0.519625	-0.290167	0.665503	-0.353289	-0.272232	0.606118	-0.355490	-0.205266	0.634367	-0.364875	-0.230652	0.689340	-0.361914	-0.210840	0.403241	-0.382012	-0.218457	0.391902	-0.499619	-0.318709	0.302875	-0.355891	-0.345380	0.270307	-0.364535	-0.294200	0.237956	-0.369365	-0.271487	0.271292	-0.365230	-0.390523	0.102946	-0.395744	-0.447510	0.103876	-0.429751	-0.303888	0.036150	-0.380480	-0.269488	0.045713	-0.449003	-0.243706	0.035599	-0.447691	-0.351409	0.661382	-0.714298	-0.332427	0.605796	-0.722736	-0.266269	0.631598	-0.738345	-0.292953	0.686060	-0.729316	-0.255677	0.412838	-0.732700	-0.240709	0.392255	-0.619521	-0.377525	0.277694	-0.721629	-0.397412	0.245242	-0.706753	-0.341427	0.218653	-0.704915	-0.327371	0.257949	-0.719823	-0.437347	0.111249	-0.669824	-0.407495	0.130100	-0.595775	-0.487117	0.116130	-0.624548	-0.360378	0.036899	-0.693091	-0.312756	0.045266	-0.625415	-0.294223	0.036517	-0.636928	
752	3.7600	-0.342951	1.309423	-0.530041	-0.282865	1.297710	-0.696117	-0.244471	1.290366	-0.381548	-0.219831	1.247286	-0.550960	-0.225285	0.818992	-0.424338	-0.260640	0.819182	-0.663947	-0.258212	0.902053	-0.400054	-0.298082	0.894494	-0.681204	-0.391670	0.870803	-0.473794	-0.406175	0.869889	-0.561030	-0.405730	0.868446	-0.519255	-0.290414	0.657811	-0.352418	-0.271816	0.598632	-0.354754	-0.205113	0.627607	-0.363721	-0.231105	0.682314	-0.360715	-0.208798	0.397879	-0.381794	-0.216691	0.386825	-0.499647	-0.317196	0.298561	-0.355461	-0.344194	0.266246	-0.364053	-0.293295	0.233491	-0.369373	-0.270304	0.266637	-0.365245	-0.391646	0.099865	-0.395737	-0.449055	0.100716	-0.429626	-0.304339	0.035683	-0.380042	-0.269885	0.045833	-0.448771	-0.243749	0.035578	-0.447482	-0.352179	0.653045	-0.714567	-0.332618	0.597667	-0.723018	-0.266870	0.624201	-0.739200	-0.294117	0.678367	-0.730088	-0.254409	0.407122	-0.733758	-0.237287	0.386401	-0.620942	-0.377174	0.273166	-0.721736	-0.397439	0.240977	-0.706759	-0.341715	0.213805	-0.704629	-0.327181	0.252919	-0.719746	-0.439260	0.108139	-0.668707	-0.409024	0.127070	-0.594690	-0.488915	0.113107	-0.623376	-0.361101	0.036476	-0.693045	-0.313032	0.045355	-0.625426	-0.294200	0.036470	-0.637059	
753	3.7650	-0.342905	1.303353	-0.530212	-0.282687	1.290954	-0.696658	-0.244732	1.283875	-0.381220	-0.219557	1.240416	-0.551082	-0.226519	0.811572	-0.423236	-0.261592	0.811889	-0.664261	-0.259760	0.893767	-0.398929	-0.299433	0.886185	-0.681528	-0.393545	0.863674	-0.473495	-0.407855	0.862633	-0.560856	-0.407472	0.861260	-0.519011	-0.290758	0.650846	-0.351535	-0.271573	0.591844	-0.354153	-0.205116	0.621492	-0.362683	-0.231634	0.675955	-0.359494	-0.206969	0.393048	-0.381587	-0.215184	0.382509	-0.499631	-0.315686	0.294488	-0.355137	-0.342946	0.262393	-0.363741	-0.292276	0.229322	-0.369525	-0.269066	0.262307	-0.365341	-0.392615	0.097307	-0.395844	-0.450314	0.098039	-0.429633	-0.304694	0.035345	-0.379724	-0.270191	0.045909	-0.448600	-0.243762	0.035562	-0.447307	-0.352996	0.645300	-0.714747	-0.332921	0.590108	-0.723084	-0.267538	0.617228	-0.739791	-0.295276	0.671142	-0.730724	-0.253505	0.401754	-0.734557	-0.234296	0.380961	-0.622198	-0.376981	0.269015	-0.721651	-0.397517	0.237067	-0.706564	-0.342022	0.209384	-0.704341	-0.327091	0.248341	-0.719671	-0.440865	0.105441	-0.667672	-0.410394	0.124330	-0.593620	-0.490454	0.110473	-0.622250	-0.361772	0.036117	-0.693011	-0.313267	0.045445	-0.625411	-0.294219	0.036479	-0.637245	
754	3.7700	-0.342875	1.297789	-0.530372	-0.282559	1.284774	-0.697081	-0.245040	1.277916	-0.380970	-0.219347	1.234064	-0.551189	-0.227674	0.804713	-0.422156	-0.262474	0.805001	-0.664594	-0.261270	0.886011	-0.397862	-0.300754	0.878275	-0.681861	-0.395168	0.857477	-0.473370	-0.409324	0.856228	-0.560833	-0.408967	0.854962	-0.518933	-0.291148	0.644758	-0.350712	-0.271470	0.585909	-0.353726	-0.205223	0.616133	-0.361838	-0.232184	0.670391	-0.358346	-0.205260	0.388732	-0.381419	-0.213859	0.378936	-0.499509	-0.314164	0.290773	-0.354945	-0.341641	0.258876	-0.363624	-0.291166	0.225547	-0.369828	-0.267771	0.258394	-0.365535	-0.393350	0.095268	-0.396118	-0.451294	0.095858	-0.429828	-0.305011	0.035129	-0.379517	-0.270403	0.045971	-0.448488	-0.243741	0.035560	-0.447164	-0.353743	0.638389	-0.714775	-0.333259	0.583331	-0.722917	-0.268190	0.610871	-0.740133	-0.296311	0.664591	-0.731196	-0.252824	0.396766	-0.735088	-0.231830	0.375990	-0.623218	-0.376742	0.265399	-0.721471	-0.397485	0.233656	-0.706268	-0.342195	0.205520	-0.704084	-0.326938	0.244348	-0.719618	-0.442112	0.103176	-0.666747	-0.411530	0.121998	-0.592658	-0.491719	0.108260	-0.621228	-0.362341	0.035819	-0.693029	-0.313469	0.045512	-0.625406	-0.294225	0.036449	-0.637376	
755	3.7750	-0.342861	1.292779	-0.530523	-0.282503	1.279229	-0.697382	-0.245390	1.272515	-0.380795	-0.219210	1.228315	-0.551281	-0.228710	0.798605	-0.421160	-0.263239	0.798640	-0.664911	-0.262684	0.879040	-0.396878	-0.301973	0.870930	-0.682201	-0.396486	0.852288	-0.473443	-0.410523	0.850771	-0.560972	-0.410162	0.849619	-0.519036	-0.291504	0.639627	-0.350043	-0.271432	0.580921	-0.353478	-0.205359	0.611617	-0.361218	-0.232681	0.665702	-0.357374	-0.203563	0.384949	-0.381299	-0.212610	0.376077	-0.499268	-0.312621	0.287539	-0.354895	-0.340326	0.255869	-0.363635	-0.289992	0.222284	-0.370252	-0.266430	0.254996	-0.365813	-0.393792	0.093713	-0.396546	-0.452001	0.094192	-0.430242	-0.305254	0.035016	-0.379449	-0.270462	0.046094	-0.448459	-0.243556	0.035606	-0.447101	-0.354306	0.632484	-0.714597	-0.333538	0.577513	-0.722524	-0.268731	0.605316	-0.740274	-0.297109	0.658918	-0.731502	-0.252185	0.392255	-0.735383	-0.229911	0.371578	-0.623914	-0.376293	0.262412	-0.721274	-0.397219	0.230858	-0.705962	-0.342131	0.202292	-0.703856	-0.326594	0.241002	-0.719557	-0.442987	0.101348	-0.665949	-0.412361	0.120177	-0.591868	-0.492708	0.106493	-0.620344	-0.362762	0.035606	-0.693015	-0.313597	0.045585	-0.625407	-0.294200	0.036421	-0.637498	
756	3.7800	-0.342867	1.288374	-0.530663	-0.282534	1.274362	-0.697584	-0.245764	1.267714	-0.380676	-0.219144	1.223252	-0.551360	-0.229591	0.793418	-0.420314	-0.263847	0.792946	-0.665173	-0.263944	0.873123	-0.396009	-0.303046	0.864348	-0.682559	-0.397503	0.848074	-0.473694	-0.411433	0.846274	-0.561246	-0.411067	0.845226	-0.519297	-0.291766	0.635492	-0.349578	-0.271385	0.576902	-0.353385	-0.205453	0.607978	-0.360806	-0.233060	0.661924	-0.356644	-0.201795	0.381719	-0.381219	-0.211250	0.373880	-0.498951	-0.311069	0.284895	-0.354985	-0.339032	0.253490	-0.363758	-0.288809	0.219607	-0.370754	-0.265069	0.252186	-0.366168	-0.393973	0.092590	-0.397116	-0.452412	0.093032	-0.430911	-0.305436	0.034955	-0.379477	-0.270381	0.046214	-0.448517	-0.243265	0.035643	-0.447042	-0.354595	0.627691	-0.714204	-0.333674	0.572763	-0.721963	-0.269083	0.600710	-0.740286	-0.297597	0.654250	-0.731633	-0.251408	0.388351	-0.735483	-0.228503	0.367821	-0.624209	-0.375556	0.260091	-0.721072	-0.396682	0.228702	-0.705680	-0.341797	0.199719	-0.703639	-0.325998	0.238328	-0.719460	-0.443505	0.099958	-0.665312	-0.412864	0.118876	-0.591247	-0.493399	0.105136	-0.619621	-0.363051	0.035438	-0.692997	-0.313674	0.045639	-0.625412	-0.294139	0.036400	-0.637613	
757	3.7850	-0.342887	1.284631	-0.530785	-0.282670	1.270213	-0.697724	-0.246131	1.263565	-0.380595	-0.219146	1.218950	-0.551427	-0.230307	0.789289	-0.419667	-0.264264	0.788060	-0.665344	-0.264999	0.868472	-0.395295	-0.303893	0.858741	-0.682934	-0.398264	0.844729	-0.474064	-0.412087	0.842671	-0.561605	-0.411729	0.841703	-0.519657	-0.291874	0.632276	-0.349341	-0.271239	0.573800	-0.353405	-0.205435	0.605212	-0.360560	-0.233294	0.659031	-0.356167	-0.199922	0.379067	-0.381188	-0.209694	0.372240	-0.498634	-0.309547	0.282918	-0.355222	-0.337807	0.251824	-0.363971	-0.287674	0.217579	-0.371291	-0.263748	0.250006	-0.366579	-0.393958	0.091860	-0.397781	-0.452552	0.092337	-0.431816	-0.305569	0.034943	-0.379608	-0.270249	0.046237	-0.448532	-0.242837	0.035702	-0.447059	-0.354583	0.624007	-0.713646	-0.333602	0.569108	-0.721350	-0.269192	0.597114	-0.740216	-0.297754	0.650614	-0.731586	-0.250337	0.385181	-0.735445	-0.227469	0.364826	-0.624101	-0.374565	0.258365	-0.720862	-0.395906	0.227134	-0.705420	-0.341235	0.197737	-0.703402	-0.325163	0.236257	-0.719296	-0.443732	0.098991	-0.664812	-0.413089	0.118039	-0.590768	-0.493817	0.104183	-0.619040	-0.363235	0.035338	-0.692985	-0.313699	0.045679	-0.625402	-0.294060	0.036379	-0.637720	
758	3.7900	-0.342931	1.281601	-0.530883	-0.282921	1.266806	-0.697844	-0.246450	1.260136	-0.380536	-0.219211	1.215476	-0.551485	-0.230853	0.786292	-0.419242	-0.264493	0.784119	-0.665421	-0.265813	0.865217	-0.394776	-0.304451	0.854302	-0.683318	-0.398822	0.842132	-0.474473	-0.412534	0.839883	-0.561988	-0.412201	0.838943	-0.520050	-0.291836	0.629877	-0.349320	-0.270935	0.571540	-0.353488	-0.205266	0.603271	-0.360416	-0.233392	0.656956	-0.355921	-0.197956	0.377020	-0.381200	-0.207875	0.371072	-0.498408	-0.308110	0.281628	-0.355577	-0.336694	0.250883	-0.364268	-0.286645	0.216212	-0.371816	-0.262516	0.248474	-0.366990	-0.393815	0.091508	-0.398467	-0.452463	0.092017	-0.432851	-0.305661	0.034957	-0.379803	-0.270041	0.046251	-0.448569	-0.242367	0.035756	-0.447094	-0.354295	0.621311	-0.713036	-0.333282	0.566424	-0.720761	-0.269020	0.594502	-0.740071	-0.297610	0.647964	-0.731393	-0.248869	0.382832	-0.735322	-0.226681	0.362675	-0.623617	-0.373406	0.257154	-0.720647	-0.394974	0.226074	-0.705177	-0.340516	0.196278	-0.703122	-0.324180	0.234725	-0.719054	-0.443743	0.098417	-0.664423	-0.413101	0.117564	-0.590400	-0.493997	0.103603	-0.618579	-0.363329	0.035302	-0.692944	-0.313698	0.045678	-0.625391	-0.293956	0.036311	-0.637766	
759	3.7950	-0.342999	1.279324	-0.530950	-0.283286	1.264174	-0.697978	-0.246678	1.257457	-0.380480	-0.219323	1.212875	-0.551544	-0.231228	0.784415	-0.419037	-0.264551	0.781236	-0.665418	-0.266385	0.863354	-0.394506	-0.304699	0.851184	-0.683685	-0.399224	0.840192	-0.474854	-0.412817	0.837817	-0.562348	-0.412529	0.836868	-0.520412	-0.291691	0.628185	-0.349450	-0.270457	0.570011	-0.353598	-0.204944	0.602093	-0.360327	-0.233370	0.655620	-0.355876	-0.195961	0.375599	-0.381235	-0.205809	0.370285	-0.498353	-0.306802	0.280994	-0.356009	-0.335738	0.250642	-0.364587	-0.285752	0.215483	-0.372251	-0.261426	0.247583	-0.367353	-0.393593	0.091491	-0.399087	-0.452179	0.091987	-0.433849	-0.305698	0.034978	-0.380012	-0.269787	0.046253	-0.448619	-0.241892	0.035804	-0.447123	-0.353790	0.619402	-0.712467	-0.332695	0.564556	-0.720266	-0.268567	0.592780	-0.739862	-0.297237	0.646175	-0.731093	-0.247006	0.381296	-0.735137	-0.226021	0.361372	-0.622855	-0.372190	0.256390	-0.720407	-0.393982	0.225456	-0.704935	-0.339727	0.195290	-0.702791	-0.323140	0.233665	-0.718725	-0.443606	0.098204	-0.664152	-0.412927	0.117366	-0.590118	-0.493976	0.103369	-0.618220	-0.363342	0.035294	-0.692866	-0.313623	0.045684	-0.625373	-0.293838	0.036309	-0.637836	
